<?xml version="1.0" encoding="utf-8"?>
<!-- Generator: Adobe Illustrator 22.0.0, SVG Export Plug-In . SVG Version: 6.00 Build 0)  -->
<svg version="1.0" xmlns="http://www.w3.org/2000/svg" xmlns:xlink="http://www.w3.org/1999/xlink" x="0px" y="0px"
	 viewBox="0 0 2000 2000" style="enable-background:new 0 0 2000 2000;" xml:space="preserve">
<style type="text/css">
	.st0{display:none;}
	.st1{display:inline;fill:#707070;}
	.st2{fill:#7C7C7C;}
	.st3{display:inline;fill:#FFFFFF;}
</style>
<g id="Ebene_2" class="st0">
	<rect y="-269.7" class="st1" width="2000" height="2442.1"/>
</g>
<g id="Ebene_1">
	<path class="st2" d="M1916.4,2000H83.6c-46.2,0-83.6-37.4-83.6-83.6v-334c0-46.2,37.4-83.6,83.6-83.6h1832.8
		c46.2,0,83.6,37.4,83.6,83.6v334C2000,1962.6,1962.6,2000,1916.4,2000z"/>
	<path class="st2" d="M1046.3,852.3h407.2c25.6,0,46.3-20.7,46.3-46.3V511.4c0-25.6-20.7-46.3-46.3-46.3h-407.2
		c-25.6,0-46.3,20.7-46.3,46.3V806C1000,831.5,1020.7,852.3,1046.3,852.3z"/>
	<path class="st2" d="M1916.4,502H83.6C37.4,502,0,464.6,0,418.4v-334C0,38.3,37.4,0.9,83.6,0.9h1832.8c46.2,0,83.6,37.4,83.6,83.6
		v334C2000,464.6,1962.6,502,1916.4,502z"/>
	<path class="st2" d="M1546.1,1656.9h407.2c25.6,0,46.3-20.7,46.3-46.3v-407.2c0-25.6-20.7-46.3-46.3-46.3h-407.2
		c-25.6,0-46.3,20.7-46.3,46.3v407.2C1499.8,1636.2,1520.6,1656.9,1546.1,1656.9z"/>
	<path class="st2" d="M1046.3,1236h907c25.6,0,46.3-20.7,46.3-46.3V827.5c0-25.6-20.7-46.3-46.3-46.3h-907
		c-25.6,0-46.3,20.7-46.3,46.3v362.2C1000,1215.3,1020.7,1236,1046.3,1236z"/>
</g>
<g id="Ebene_3" class="st0">
	<rect y="1498.9" class="st3" width="2000" height="501.1"/>
	<rect x="1000" y="465.1" class="st3" width="499.8" height="387.2"/>
	<rect y="0.9" class="st3" width="2000" height="501.1"/>
	<rect x="1499.8" y="1157.1" class="st3" width="499.8" height="499.8"/>
	<rect x="1000" y="781.2" class="st3" width="999.6" height="454.8"/>
</g>
</svg>
